bicep_curl
version=1
nRows=17
nColumns=17
inDegrees=yes

# SIMM Motion File Header:
name bicep_curl
datacolumns 17
datarows 17
otherdata 1
range 4.82383225 4.91621792
endheader
time	/jointset/r_shoulder/r_shoulder_elev/value	/jointset/r_shoulder/r_shoulder_elev/speed	/jointset/r_elbow/r_elbow_flex/value	/jointset/r_elbow/r_elbow_flex/speed	/forceset/TRIlong/activation	/forceset/TRIlong/fiber_length	/forceset/TRIlat/activation	/forceset/TRIlat/fiber_length	/forceset/TRImed/activation	/forceset/TRImed/fiber_length	/forceset/BIClong/activation	/forceset/BIClong/fiber_length	/forceset/BICshort/activation	/forceset/BICshort/fiber_length	/forceset/BRA/activation	/forceset/BRA/fiber_length
4.82383225	     -8.02180955	    -12.99873374	   -143.86051149	      3.85089212	      0.06179622	      0.16801557	      0.31854524	      0.10650960	    -73.78917438	      0.10304681	     -3.65786086	      0.08407498	     -5.68003375	      0.08010077	    271.17168069	      0.04165360
4.82870246	     -8.09038487	    -15.15386514	   -143.84359032	      3.10696564	      0.06196524	      0.16797273	      0.31959075	      0.10650298	    -74.37275260	      0.10304258	     -3.67467646	      0.08411282	     -5.69583274	      0.08013310	    271.64601629	      0.04165874
4.83474262	     -8.18980195	    -17.74984182	   -143.82744394	      2.24970679	      0.06205003	      0.16791232	      0.32033670	      0.10649644	    -75.09652134	      0.10303843	     -3.69553161	      0.08416093	     -5.71542705	      0.08017279	    272.23429952	      0.04166389
4.84000000	     -8.28888919	    -19.93218426	   -143.81748453	      1.54388342	      0.06207822	      0.16785317	      0.32069998	      0.10649233	    -75.72649329	      0.10303575	     -3.71368403	      0.08420395	     -5.73248204	      0.08020714	    272.74634419	      0.04166733
4.84389783	     -8.36964835	    -21.49937537	   -143.81248490	      1.02547650	      0.06231895	      0.16780486	      0.32199351	      0.10648939	    -76.20237436	      0.10303429	     -3.72716020	      0.08423656	     -5.74517071	      0.08023257	    273.12504676	      0.04166929
4.84883302	     -8.48053845	    -23.42880588	   -143.80896598	      0.40803456	      0.06246526	      0.16773881	      0.32304078	      0.10648584	    -76.80490600	      0.10303308	     -3.74422290	      0.08427874	     -5.76123634	      0.08026479	    273.60453689	      0.04167106
4.85504599	     -8.63341279	    -25.76446002	   -143.80870449	     -0.31567394	      0.06253850	      0.16764889	      0.32379276	      0.10648293	    -77.56344016	      0.10303250	     -3.76570333	      0.08433326	     -5.78146154	      0.08030548	    274.20817266	      0.04167224
4.86000000	     -8.76549392	    -27.54620156	   -143.81163851	     -0.86601008	      0.06256094	      0.16757184	      0.32413078	      0.10648190	    -78.16826879	      0.10303265	     -3.78283108	      0.08437790	     -5.79758841	      0.08033818	    274.68949072	      0.04167234
4.86431913	     -8.88770822	    -29.03706841	   -143.81641461	     -1.34379885	      0.06276913	      0.16750036	      0.32549825	      0.10648101	    -78.70466756	      0.10303315	     -3.79788193	      0.08441766	     -5.81170189	      0.08036692	    275.10733469	      0.04167168
4.86965259	     -9.04732547	    -30.80416577	   -143.82511651	     -1.91636325	      0.06288450	      0.16740729	      0.32653682	      0.10648014	    -79.36703859	      0.10303431	     -3.81646745	      0.08446779	     -5.82912989	      0.08040274	    275.62330854	      0.04167005
4.87669681	     -9.27216299	    -33.00615838	   -143.84122684	     -2.65537382	      0.06293966	      0.16727723	      0.32727641	      0.10648051	    -80.24187083	      0.10303684	     -3.84101443	      0.08453563	     -5.85214807	      0.08045063	    276.30478543	      0.04166675
4.88000000	     -9.38281445	    -33.98468192	   -143.85056627	     -2.99926906	      0.06295001	      0.16721353	      0.32747872	      0.10648121	    -80.65209927	      0.10303842	     -3.85252505	      0.08456802	     -5.86294181	      0.08047332	    276.62434523	      0.04166476
4.88568057	     -9.58045762	    -35.58398844	   -143.86916154	     -3.54574677	      0.06304616	      0.16709985	      0.32893519	      0.10648258	    -81.36570310	      0.10304172	     -3.87287949	      0.08462448	     -5.88159489	      0.08051269	    277.16980011	      0.04166073
4.89136114	     -9.78689353	    -37.08009891	   -143.89082194	     -4.07798301	      0.06308315	      0.16698150	      0.32975592	      0.10648444	    -82.07930694	      0.10304573	     -3.89323393	      0.08468184	     -5.90024797	      0.08055254	    277.71525499	      0.04165595
4.90000000	    -10.11635445	    -39.15261765	   -143.92947335	     -4.86812319	      0.06310093	      0.16679350	      0.33037368	      0.10648917	    -83.16453764	      0.10305312	     -3.92418845	      0.08477053	     -5.92861511	      0.08061407	    278.54476900	      0.04164730
4.90810896	    -10.44095961	    -40.87085237	   -143.97137638	     -5.46647627	      0.06308695	      0.16660913	      0.33181432	      0.10649492	    -84.18765363	      0.10306140	     -3.95472678	      0.08485513	     -5.95541107	      0.08067290	    279.31555616	      0.04163779
4.91621792	    -10.77859370	    -42.36603311	   -144.01811622	     -6.06159879	      0.06307455	      0.16641798	      0.33245254	      0.10650204	    -85.21076961	      0.10307083	     -3.98526510	      0.08494072	     -5.98220702	      0.08073304	    280.08634333	      0.04162709
